<?xml version="1.0" standalone="no"?>
<!DOCTYPE svg PUBLIC "-//W3C//DTD SVG 20010904//EN"
 "http://www.w3.org/TR/2001/REC-SVG-20010904/DTD/svg10.dtd">
<svg version="1.0" xmlns="http://www.w3.org/2000/svg"
 width="427.000000pt" height="427.000000pt" viewBox="0 0 427.000000 427.000000"
 preserveAspectRatio="xMidYMid meet">
<metadata>
Created by potrace 1.14, written by Peter Selinger 2001-2017
</metadata>
<g transform="translate(0.000000,427.000000) scale(0.100000,-0.100000)"
fill="#000000" stroke="none">
<path d="M1950 3610 c-266 -33 -542 -152 -745 -324 -300 -253 -482 -622 -502
-1016 -34 -704 440 -1315 1134 -1461 140 -29 415 -29 560 0 277 57 521 188
718 386 211 213 340 453 394 740 29 155 28 396 -3 545 -72 347 -256 641 -533
849 -178 134 -381 225 -594 266 -95 18 -332 27 -429 15z"/>
</g>
</svg>
